<?xml version="1.0" standalone="no"?>
<!DOCTYPE svg PUBLIC "-//W3C//DTD SVG 20010904//EN"
 "http://www.w3.org/TR/2001/REC-SVG-20010904/DTD/svg10.dtd">
<svg version="1.0" xmlns="http://www.w3.org/2000/svg"
 width="222.000000pt" height="222.000000pt" viewBox="0 0 222.000000 222.000000"
 preserveAspectRatio="xMidYMid meet">
<metadata>
Created by potrace 1.11, written by Peter Selinger 2001-2013
</metadata>
<g transform="translate(0.000000,222.000000) scale(0.100000,-0.100000)"
fill="#000000" stroke="none">
<path d="M0 1110 l0 -1110 1110 0 1110 0 0 1110 0 1110 -1110 0 -1110 0 0
-1110z m925 160 c115 -269 210 -488 212 -486 2 2 99 221 216 487 l213 484 192
3 192 2 0 -33 c0 -33 -2 -35 -42 -40 -53 -7 -90 -35 -105 -78 -17 -48 -17
-940 0 -988 16 -46 52 -70 115 -78 51 -6 52 -6 52 -39 l0 -34 -275 0 -275 0 0
34 c0 33 0 34 57 41 72 9 108 42 118 106 3 24 5 237 3 472 l-3 429 -245 -551
c-213 -480 -247 -551 -266 -551 -18 0 -51 69 -260 547 l-239 546 -3 -364 c-1
-200 2 -411 7 -468 9 -92 13 -106 37 -132 21 -22 39 -30 86 -35 58 -7 58 -7
58 -40 l0 -34 -240 0 -240 0 0 34 c0 33 1 34 54 41 65 8 100 32 118 83 19 54
19 920 0 974 -17 48 -52 75 -108 84 -42 6 -44 8 -44 40 l0 34 203 0 204 0 208
-490z"/>
</g>
</svg>
